<?xml version="1.0" standalone="no"?>
<!DOCTYPE svg PUBLIC "-//W3C//DTD SVG 1.1//EN" "http://www.w3.org/Graphics/SVG/1.1/DTD/svg11.dtd">
<!--Generator: Xara Designer (www.xara.com), SVG filter version: 6.3.0.9-->
<svg stroke-width="0.501" stroke-linejoin="bevel" fill-rule="evenodd" xmlns:xlink="http://www.w3.org/1999/xlink" xmlns="http://www.w3.org/2000/svg" version="1.1" overflow="visible" width="595.277pt" height="841.891pt" viewBox="0 0 595.277 841.891">
 <defs>
	</defs>
 <g id="Document" fill="none" stroke="black" font-family="Times New Roman" font-size="16" transform="scale(1 -1)">
  <g id="Spread" transform="translate(0 -841.891)">
   <g id="Layer 1" style="font-variant-ligatures:none"/>
   <g id="Imported Layer 1" style="font-variant-ligatures:none">
    <g id="Group">
     <g id="Group_1">
      <path d="M 250.681,210.953 L 250.405,210.985 C 249.301,214.101 247.985,217.306 246.457,220.597 C 244.928,223.888 243.857,226.062 243.241,227.118 C 243.159,226.71 243.067,225.524 242.964,223.558 C 242.83,221.165 242.764,218.531 242.764,215.654 C 242.764,214.761 242.832,213.753 242.968,212.63 C 243.007,212.313 243.148,212.078 243.391,211.924 C 243.634,211.771 244.261,211.684 245.272,211.665 C 245.661,211.665 246.03,211.636 246.381,211.578 C 246.448,211.426 246.483,211.315 246.483,211.244 C 246.483,211.193 246.458,211.117 246.41,211.016 L 241.895,211.141 C 241.566,211.141 241.052,211.117 240.356,211.07 C 239.968,211.046 239.412,211.029 238.686,211.016 L 238.672,211.372 C 238.972,211.572 239.516,211.711 240.303,211.789 C 240.914,211.819 241.278,211.872 241.395,211.951 C 241.472,212.009 241.531,212.083 241.57,212.171 C 241.715,212.523 241.822,213.486 241.89,215.059 C 241.98,217.083 242.126,219.771 242.326,223.12 C 242.486,225.687 242.567,227.29 242.567,227.929 L 242.567,228.292 C 241.862,228.431 240.749,228.578 239.224,228.735 C 239.127,228.868 239.078,228.972 239.078,229.048 C 239.078,229.096 239.111,229.181 239.179,229.306 C 239.343,229.363 239.469,229.391 239.556,229.391 C 239.633,229.391 239.803,229.376 240.064,229.345 C 240.538,229.292 241.191,229.266 242.023,229.266 C 242.293,229.266 242.757,229.289 243.415,229.337 C 243.879,229.372 244.14,229.391 244.198,229.391 C 244.353,229.391 244.532,229.359 244.735,229.294 C 244.826,229.193 244.895,229.095 244.941,229.002 L 245.564,227.671 L 249.693,218.775 L 251.406,215.04 C 252.749,217.64 253.793,219.955 254.538,221.986 C 254.586,222.14 254.644,222.28 254.712,222.406 C 254.799,222.56 254.881,222.737 254.958,222.935 C 255.035,223.133 255.349,223.894 255.901,225.218 C 256.123,225.74 256.301,226.195 256.437,226.581 C 256.988,228.089 257.312,228.953 257.408,229.176 C 257.592,229.257 257.752,229.297 257.888,229.297 C 258.043,229.297 258.241,229.286 258.483,229.266 C 259.025,229.226 259.906,229.206 261.127,229.206 C 261.882,229.206 262.502,229.215 262.986,229.235 C 263.006,229.126 263.015,229.048 263.015,228.999 C 263.015,228.931 263.001,228.842 262.972,228.735 C 262.662,228.57 262.289,228.478 261.853,228.458 C 260.991,228.411 260.444,228.343 260.211,228.255 C 259.979,228.169 259.831,228.06 259.768,227.929 C 259.705,227.799 259.649,227.367 259.601,226.632 L 259.615,225.965 L 259.601,225.284 C 259.601,223.863 259.64,221.48 259.717,218.135 L 259.703,215.337 L 259.717,213.554 C 259.717,212.847 259.751,212.432 259.819,212.306 C 259.886,212.181 260.08,212.06 260.399,211.945 C 260.922,211.78 261.773,211.606 262.953,211.422 C 263.02,211.374 263.054,211.312 263.054,211.236 C 263.054,211.15 263.049,211.064 263.04,210.977 L 262.372,210.977 C 261.8,210.977 261.181,210.994 260.513,211.028 C 259.845,211.062 259.486,211.078 259.438,211.078 C 257.453,211.078 256.137,211.055 255.488,211.007 C 255.091,210.972 254.84,210.953 254.733,210.953 C 254.665,210.953 254.592,210.973 254.515,211.012 L 254.515,211.174 C 254.515,211.262 254.529,211.355 254.559,211.453 C 254.878,211.589 255.313,211.681 255.863,211.73 C 256.472,211.884 256.917,212.054 257.197,212.238 C 257.284,212.597 257.328,213.333 257.328,214.447 L 257.304,217.324 C 257.304,217.634 257.318,218.215 257.345,219.068 C 257.372,219.92 257.386,221.31 257.386,223.238 C 257.386,224.769 257.356,225.926 257.297,226.711 C 257.132,226.382 256.806,225.66 256.32,224.545 L 256.102,224.007 L 256.072,223.92 L 253.916,218.934 L 253.144,217.015 L 252.138,214.675 C 251.7,213.609 251.326,212.66 251.016,211.826 C 250.88,211.448 250.768,211.157 250.681,210.953 Z" stroke-width="1" stroke-linejoin="miter" stroke="none" fill="#000000" marker-start="none" marker-end="none" stroke-miterlimit="79.8403193612775"/>
      <path d="M 267.049,210.949 C 266.996,210.996 266.969,211.059 266.969,211.136 L 266.984,211.281 C 267.081,211.367 267.163,211.419 267.232,211.439 C 267.397,211.487 267.678,211.526 268.077,211.555 C 269.019,211.613 269.602,211.696 269.826,211.802 C 269.962,211.995 270.029,212.263 270.029,212.603 L 270.015,213.607 L 270.029,217.229 L 270.001,218.931 L 270.015,222.509 L 269.943,226.583 C 269.933,227.552 269.87,228.095 269.755,228.212 C 269.581,228.396 269.064,228.503 268.205,228.533 C 267.838,228.542 267.515,228.57 267.235,228.619 C 267.109,228.685 267.047,228.765 267.047,228.861 C 267.047,228.937 267.07,229.027 267.119,229.132 C 267.206,229.179 267.283,229.203 267.351,229.203 C 267.487,229.203 267.652,229.199 267.845,229.189 C 268.416,229.128 269.007,229.097 269.617,229.097 L 270.692,229.126 L 273.248,229.064 C 274.526,229.064 275.523,229.084 276.239,229.126 C 276.956,229.167 277.44,229.189 277.692,229.189 C 277.914,229.189 278.466,229.153 279.347,229.081 L 281.41,229.095 L 281.656,229.052 L 282.862,229.095 L 283.007,229.023 C 283.055,228.946 283.09,228.864 283.109,228.777 C 283.109,228.652 283.087,228.453 283.043,228.177 C 282.998,227.904 282.976,227.732 282.976,227.664 C 282.976,226.682 283.01,225.853 283.078,225.179 C 283.069,225.121 283.041,225.083 282.995,225.064 C 282.893,225.064 282.801,225.078 282.718,225.107 C 282.612,225.281 282.469,225.595 282.29,226.05 C 282.11,226.504 281.841,227.032 281.483,227.631 C 281.24,228.028 281.051,228.265 280.916,228.341 C 280.78,228.419 280.499,228.458 280.072,228.458 C 279.985,228.458 279.544,228.467 278.75,228.487 C 278.536,228.496 278.328,228.501 278.125,228.501 L 273.982,228.413 L 273.618,228.413 C 273.085,228.413 272.765,228.345 272.658,228.21 C 272.494,227.986 272.412,227.316 272.412,226.199 C 272.412,226.082 272.436,224.941 272.484,222.775 L 272.484,220.792 C 272.59,220.763 272.705,220.749 272.83,220.749 L 273.076,220.749 C 273.239,220.749 273.48,220.744 273.798,220.735 C 274.298,220.715 274.634,220.706 274.808,220.706 C 274.923,220.706 275.024,220.71 275.111,220.72 C 276.15,220.758 277.487,220.778 279.123,220.778 C 279.632,220.865 279.931,220.96 280.018,221.068 C 280.162,221.241 280.27,221.687 280.342,222.405 C 280.414,223.122 280.575,223.53 280.825,223.626 C 280.95,223.626 281.066,223.602 281.172,223.554 C 281.191,223.477 281.2,223.404 281.2,223.337 C 281.2,223.269 281.191,223.163 281.172,223.019 C 281.151,222.661 281.14,221.562 281.14,219.718 C 281.14,219.226 281.166,218.679 281.218,218.076 C 281.27,217.472 281.297,217.147 281.297,217.099 C 281.297,217.011 281.282,216.896 281.253,216.751 C 281.176,216.722 281.113,216.708 281.066,216.708 L 280.965,216.708 C 280.811,216.969 280.661,217.38 280.516,217.943 C 280.265,218.902 280.001,219.501 279.726,219.744 C 279.45,219.986 279.003,220.107 278.384,220.107 C 278.249,220.107 278.002,220.1 277.645,220.085 C 277.287,220.071 276.755,220.064 276.049,220.064 L 275.107,220.064 C 273.763,220.064 272.883,220.035 272.467,219.977 L 272.453,219.513 L 272.467,216.889 L 272.453,215.251 L 272.467,213.642 C 272.477,212.675 272.54,212.115 272.656,211.96 C 272.82,211.757 273.179,211.656 273.732,211.656 L 274.618,211.669 C 274.695,211.669 274.998,211.662 275.526,211.648 C 276.053,211.633 276.705,211.626 277.48,211.626 C 279.349,211.626 280.594,211.703 281.214,211.859 C 281.834,212.013 282.345,212.288 282.747,212.685 C 283.149,213.081 283.655,213.941 284.265,215.265 C 284.449,215.652 284.633,215.845 284.818,215.845 C 284.905,215.845 285.002,215.806 285.109,215.729 C 284.833,214.788 284.676,214.173 284.638,213.882 C 284.533,213.213 284.471,212.531 284.453,211.832 C 284.453,211.522 284.375,211.26 284.219,211.047 L 283.9,211.047 L 279.809,211.033 L 277.975,211.064 L 273.608,211.006 L 271.831,211.006 C 271.608,211.006 271.4,211.001 271.205,210.992 C 269.458,210.915 268.173,210.876 267.348,210.876 C 267.202,210.876 267.103,210.901 267.049,210.949 Z" stroke-width="1" stroke-linejoin="miter" stroke="none" fill="#000000" marker-start="none" marker-end="none" stroke-miterlimit="79.8403193612775"/>
      <path d="M 289.115,210.86 L 289.087,210.974 C 289.067,211.023 289.058,211.066 289.058,211.103 L 289.087,211.318 C 289.445,211.47 289.863,211.572 290.339,211.62 C 291.027,211.698 291.541,211.858 291.881,212.101 C 292.143,212.626 292.274,213.958 292.274,216.097 L 292.274,218.357 L 292.303,219.712 L 292.274,220.718 L 292.303,222.556 L 292.259,227.207 C 292.259,227.732 292.182,228.073 292.027,228.228 C 291.804,228.471 291.213,228.69 290.254,228.884 C 289.857,228.972 289.614,229.05 289.528,229.119 C 289.441,229.187 289.387,229.313 289.368,229.495 C 289.59,229.542 289.745,229.565 289.833,229.565 L 290.865,229.565 L 291.403,229.578 C 291.761,229.578 292.158,229.544 292.595,229.478 C 293.486,229.419 294.402,229.391 295.342,229.391 C 295.613,229.391 296.001,229.407 296.505,229.438 C 297.842,229.511 298.802,229.547 299.383,229.547 C 300.556,229.547 301.663,229.433 302.705,229.206 C 303.747,228.978 304.82,228.56 305.925,227.95 C 306.613,227.562 307.318,226.948 308.04,226.106 C 308.762,225.263 309.309,224.346 309.682,223.354 C 310.055,222.362 310.243,221.245 310.243,220.007 C 310.243,218.894 310.037,217.792 309.625,216.703 C 309.213,215.615 308.638,214.668 307.902,213.865 C 307.165,213.062 306.418,212.458 305.662,212.058 C 304.906,211.656 303.753,211.314 302.202,211.034 C 301.562,210.917 300.413,210.86 298.756,210.86 C 297.66,210.86 296.768,210.889 296.08,210.947 C 295.809,210.982 295.518,210.999 295.208,210.999 C 295.159,210.999 295.106,210.994 295.048,210.985 L 289.115,210.86 Z M 301.603,211.997 C 302.544,212.296 303.375,212.718 304.097,213.259 C 304.819,213.802 305.413,214.415 305.878,215.103 C 306.343,215.79 306.673,216.41 306.867,216.962 C 307.138,217.765 307.274,218.815 307.274,220.112 C 307.274,221.341 307.007,222.589 306.474,223.857 C 306.106,224.747 305.459,225.593 304.533,226.398 C 303.608,227.201 302.514,227.79 301.255,228.168 C 299.994,228.546 298.632,228.735 297.169,228.735 C 296.161,228.735 295.414,228.623 294.93,228.401 C 294.871,228.342 294.813,228.275 294.755,228.197 C 294.697,227.964 294.668,227.747 294.668,227.544 C 294.668,227.418 294.673,227.273 294.683,227.109 C 294.712,226.005 294.726,225.124 294.726,224.466 L 294.712,221.23 C 294.712,216.488 294.801,213.848 294.981,213.311 C 295.16,212.774 295.661,212.306 296.486,211.91 C 297.222,211.667 297.968,211.547 298.725,211.547 C 299.703,211.547 300.663,211.697 301.603,211.997 Z" stroke-width="1" stroke-linejoin="miter" stroke="none" fill="#000000" marker-start="none" marker-end="none" stroke-miterlimit="79.8403193612775"/>
      <path d="M 322.537,210.869 C 321.424,211.189 320.539,211.615 319.881,212.148 C 319.222,212.681 318.768,213.214 318.516,213.747 C 318.177,214.445 318.008,215.468 318.008,216.815 L 318.008,217.804 L 317.965,221.786 L 318.008,225.015 L 318.008,227.181 C 318.008,227.733 317.931,228.116 317.776,228.329 C 317.669,228.484 317.513,228.562 317.31,228.562 L 316.451,228.547 C 315.81,228.547 315.402,228.615 315.227,228.749 C 315.198,228.826 315.184,228.898 315.184,228.966 C 315.184,229.052 315.213,229.119 315.271,229.167 C 315.378,229.244 315.508,229.283 315.664,229.283 L 316.043,229.283 L 317.017,229.297 L 319.316,229.297 L 323.142,229.341 C 323.191,229.175 323.215,229.048 323.215,228.96 C 323.215,228.902 323.201,228.82 323.172,228.712 C 322.919,228.644 322.714,228.61 322.558,228.61 C 322.49,228.61 322.376,228.617 322.215,228.631 C 322.054,228.646 321.925,228.654 321.829,228.654 C 321.382,228.654 321.026,228.566 320.763,228.392 C 320.589,228.286 320.481,228.15 320.442,227.986 L 320.297,226.361 L 320.34,219.324 C 320.35,216.742 320.437,215.136 320.601,214.507 C 320.765,213.878 321.042,213.361 321.428,212.954 C 321.815,212.548 322.397,212.212 323.176,211.947 C 323.955,211.68 324.712,211.547 325.446,211.547 C 327.09,211.547 328.35,211.78 329.225,212.245 C 330.1,212.71 330.729,213.352 331.111,214.171 C 331.493,214.991 331.684,216.239 331.684,217.915 C 331.684,217.964 331.67,218.341 331.64,219.05 L 331.64,219.471 C 331.64,219.617 331.649,219.91 331.669,220.351 C 331.688,220.792 331.698,221.051 331.698,221.128 L 331.48,225.229 C 331.412,226.605 331.331,227.417 331.239,227.663 C 331.146,227.911 331.012,228.093 330.838,228.209 C 330.458,228.481 329.738,228.718 328.677,228.922 C 328.629,229.054 328.6,229.192 328.59,229.334 C 328.969,229.372 329.343,229.391 329.714,229.391 C 330.102,229.391 330.511,229.375 330.939,229.344 C 331.581,229.292 331.93,229.266 331.989,229.266 L 334.295,229.391 L 334.747,229.376 L 334.732,228.828 C 333.54,228.683 332.827,228.507 332.594,228.304 C 332.361,228.099 332.245,227.721 332.245,227.167 C 332.245,226.867 332.264,226.226 332.303,225.245 L 332.405,222.288 L 332.39,221.109 L 332.434,219.622 C 332.434,217.759 332.381,216.492 332.274,215.822 C 332.12,214.88 331.899,214.132 331.614,213.578 C 331.329,213.025 330.915,212.527 330.373,212.085 C 329.831,211.644 329.108,211.283 328.204,211.001 C 327.299,210.72 326.406,210.578 325.526,210.578 C 324.142,210.578 323.146,210.675 322.537,210.869 Z" stroke-width="1" stroke-linejoin="miter" stroke="none" fill="#000000" marker-start="none" marker-end="none" stroke-miterlimit="79.8403193612775"/>
      <path d="M 341.35,211.177 C 340.643,211.431 340.213,211.633 340.058,211.785 C 339.903,211.935 339.826,212.098 339.826,212.272 C 339.826,212.378 339.836,212.508 339.855,212.662 C 339.993,213.783 340.066,214.7 340.076,215.413 C 340.094,215.858 340.128,216.119 340.175,216.196 C 340.214,216.263 340.284,216.297 340.388,216.297 C 340.473,216.297 340.543,216.265 340.594,216.203 C 340.646,216.14 340.682,216.027 340.701,215.863 C 340.807,214.695 341.36,213.652 342.358,212.736 C 343.346,211.818 344.466,211.36 345.716,211.36 C 346.482,211.36 347.187,211.517 347.832,211.831 C 348.476,212.146 348.98,212.599 349.343,213.19 C 349.707,213.781 349.888,214.357 349.888,214.919 C 349.888,215.683 349.612,216.386 349.06,217.025 C 348.508,217.663 347.399,218.408 345.734,219.257 C 344.068,220.105 342.983,220.724 342.48,221.112 C 341.667,221.751 341.057,222.425 340.651,223.134 C 340.351,223.687 340.201,224.331 340.201,225.069 C 340.201,226.388 340.734,227.505 341.8,228.422 C 342.867,229.339 344.297,229.797 346.09,229.797 C 347.079,229.797 347.932,229.691 348.649,229.476 C 349.173,229.301 349.711,229.019 350.263,228.63 C 350.34,227.998 350.38,227.634 350.38,227.536 L 350.322,226.268 C 350.302,225.724 350.278,225.373 350.249,225.218 C 350.159,225.189 350.084,225.174 350.023,225.174 L 349.888,225.203 C 349.579,226.533 349.053,227.499 348.312,228.107 C 347.571,228.712 346.669,229.016 345.603,229.016 C 344.499,229.016 343.593,228.713 342.886,228.108 C 342.179,227.502 341.826,226.792 341.826,225.979 C 341.826,225.369 342.073,224.806 342.567,224.293 C 343.061,223.78 344.325,223.005 346.359,221.971 C 347.908,221.18 349.016,220.536 349.684,220.036 C 350.351,219.538 350.854,218.962 351.193,218.31 C 351.532,217.656 351.701,216.923 351.701,216.111 C 351.701,215.093 351.432,214.14 350.895,213.249 C 350.358,212.359 349.634,211.692 348.725,211.246 C 347.815,210.801 346.61,210.578 345.11,210.578 C 343.803,210.578 342.55,210.779 341.35,211.177 Z" stroke-width="1" stroke-linejoin="miter" stroke="none" fill="#000000" marker-start="none" marker-end="none" stroke-miterlimit="79.8403193612775"/>
      <path d="M 359.394,211.141 C 358.92,211.16 358.581,211.169 358.378,211.169 C 358.174,211.169 357.82,211.16 357.317,211.141 C 356.988,211.12 356.751,211.11 356.605,211.11 C 356.373,211.11 356.073,211.125 355.705,211.157 L 355.705,211.25 C 355.705,211.324 355.724,211.422 355.762,211.547 C 355.898,211.63 356.019,211.672 356.126,211.672 L 356.46,211.672 C 356.527,211.672 356.643,211.677 356.808,211.687 C 357.554,211.753 357.995,211.817 358.131,211.875 C 358.469,212.059 358.76,212.372 359.003,212.818 C 359.506,213.786 360.071,215.155 360.7,216.925 C 361,217.767 361.188,218.28 361.265,218.463 C 361.507,219.035 361.739,219.634 361.962,220.263 L 363.326,223.992 C 363.538,224.581 364.05,225.931 364.863,228.04 C 365.066,228.564 365.313,229.275 365.603,230.174 L 366.03,230.203 L 366.538,230.189 C 366.954,229.374 367.321,228.501 367.639,227.57 C 367.813,227.076 368.098,226.338 368.495,225.359 L 370.698,219.51 L 371.873,216.324 C 372.493,214.519 372.9,213.411 373.094,212.999 C 373.289,212.587 373.467,212.314 373.632,212.177 C 373.681,212.138 373.863,212.079 374.178,212.003 C 374.494,211.925 374.715,211.867 374.84,211.828 C 375.287,211.71 375.596,211.607 375.771,211.519 C 375.81,211.411 375.83,211.328 375.83,211.269 C 375.83,211.219 375.815,211.146 375.786,211.047 L 375.132,211.047 C 374.636,211.047 373.763,211.058 372.512,211.078 L 371.057,211.102 L 369.298,211.086 C 369.18,211.086 369.062,211.09 368.941,211.098 C 368.82,211.106 368.715,211.11 368.628,211.11 L 368.308,211.11 C 368.201,211.119 368.104,211.148 368.017,211.195 C 368.017,211.326 368.041,211.452 368.09,211.574 C 368.206,211.63 368.313,211.662 368.41,211.672 L 369.938,211.76 C 370.336,211.78 370.636,211.833 370.84,211.921 C 370.898,212.097 370.927,212.228 370.927,212.316 C 370.927,212.482 370.801,212.926 370.549,213.648 C 370.375,214.126 370.222,214.579 370.091,215.009 C 369.961,215.439 369.446,216.855 368.546,219.255 C 368.149,219.324 367.801,219.357 367.502,219.357 L 364.398,219.328 L 363.485,219.343 C 363.156,219.343 362.794,219.319 362.397,219.27 C 362.271,218.988 362.189,218.783 362.151,218.657 L 360.876,214.712 C 360.334,213.212 360.062,212.39 360.062,212.244 C 360.062,212.157 360.106,212.01 360.193,211.806 C 360.396,211.747 360.668,211.699 361.007,211.66 L 362.982,211.485 C 363.089,211.397 363.142,211.319 363.142,211.25 C 363.142,211.202 363.128,211.128 363.098,211.031 C 362.663,211.021 362.329,211.016 362.096,211.016 C 361.321,211.016 360.421,211.058 359.394,211.141 Z M 368.212,220.027 C 368.115,220.394 368.004,220.738 367.878,221.058 C 367.249,222.713 366.9,223.623 366.833,223.788 L 365.511,227.085 L 365.367,227.333 C 365.308,227.226 365.096,226.742 364.729,225.88 C 364.111,224.398 363.667,223.242 363.396,222.409 C 363.27,222.04 363.14,221.675 363.005,221.312 C 362.87,220.949 362.785,220.692 362.752,220.542 C 362.717,220.392 362.667,220.244 362.599,220.099 L 362.686,220.04 C 363.72,219.982 364.9,219.953 366.225,219.953 C 366.979,219.953 367.641,219.978 368.212,220.027 Z" stroke-width="1" stroke-linejoin="miter" stroke="none" fill="#000000" marker-start="none" marker-end="none" stroke-miterlimit="79.8403193612775"/>
     </g>
    </g>
    <g id="Group_2">
     <path d="M 388.866,383.921 L 388.866,270.536 L 502.251,270.536 L 502.251,383.921 L 388.866,383.921 Z" stroke="none" stroke-width="1" stroke-linejoin="miter" marker-start="none" marker-end="none" stroke-miterlimit="79.8403193612775"/>
     <g id="Group_3">
      <path d="M 397.729,352.778 C 411.831,379.18 444.706,389.161 471.107,375.059 C 497.509,360.957 507.49,328.082 493.388,301.681 C 479.286,275.28 446.411,265.298 420.01,279.4 C 393.609,293.503 383.627,326.377 397.729,352.778 Z" stroke-width="0.99" stroke-linejoin="miter" stroke="none" fill="#7f81ff" marker-start="none" marker-end="none" stroke-miterlimit="79.8403193612775"/>
      <g id="Group_4">
       <g id="Group_5">
        <path d="M 437.637,352.087 L 431.943,354.563 C 432.19,361.247 428.972,365.208 421.049,366.198 L 421.049,371.892 C 421.049,371.892 438.379,370.655 437.637,352.087 Z" stroke-width="0.99" stroke-linejoin="miter" stroke="none" fill="#000000" marker-start="none" marker-end="none" stroke-miterlimit="79.8403193612775"/>
        <path d="M 434.666,333.272 L 432.933,338.719 C 441.102,342.679 441.845,356.295 440.112,360.752 C 451.252,341.937 434.666,333.272 434.666,333.272 Z" stroke-width="0.99" stroke-linejoin="miter" stroke="none" fill="#000000" marker-start="none" marker-end="none" stroke-miterlimit="79.8403193612775"/>
        <path d="M 408.177,350.355 L 403.721,353.573 C 407.433,359.761 417.089,365.208 426.991,356.543 C 421.545,358.029 411.147,356.295 408.177,350.355 Z" stroke-width="0.99" stroke-linejoin="miter" stroke="none" fill="#000000" marker-start="none" marker-end="none" stroke-miterlimit="79.8403193612775"/>
        <path d="M 432.933,343.67 C 426.001,353.325 417.583,345.899 417.583,345.899 L 409.167,343.917 C 418.079,357.286 431.2,354.067 436.646,348.373 C 436.646,348.373 434.418,345.651 432.933,343.67 Z" stroke-width="0.99" stroke-linejoin="miter" stroke="none" fill="#000000" marker-start="none" marker-end="none" stroke-miterlimit="79.8403193612775"/>
        <path d="M 408.919,326.588 L 400.997,326.836 C 389.114,339.461 397.283,347.879 399.512,349.611 L 403.225,345.403 C 395.551,339.957 402.483,333.52 408.919,326.588 Z" stroke-width="0.99" stroke-linejoin="miter" stroke="none" fill="#000000" marker-start="none" marker-end="none" stroke-miterlimit="79.8403193612775"/>
        <path d="M 430.705,319.161 L 425.753,321.389 C 427.487,327.083 426.496,332.529 422.783,335.253 C 419.069,337.976 411.395,337.481 408.177,332.529 L 403.721,335.748 C 410.405,342.927 420.803,344.661 427.239,338.471 C 433.676,332.282 432.438,322.874 430.705,319.161 Z" stroke-width="0.99" stroke-linejoin="miter" stroke="none" fill="#000000" marker-start="none" marker-end="none" stroke-miterlimit="79.8403193612775"/>
        <path d="M 407.929,313.714 C 408.424,326.836 419.069,329.806 419.069,329.806 L 420.803,324.36 C 409.661,320.894 410.157,304.308 424.515,303.812 L 424.763,298.614 C 417.337,298.366 407.559,303.913 407.929,313.714 Z" stroke-width="0.99" stroke-linejoin="miter" stroke="none" fill="#000000" marker-start="none" marker-end="none" stroke-miterlimit="79.8403193612775"/>
        <path d="M 392.827,312.23 L 388.866,315.448 C 393.57,323.617 400.749,324.112 406.443,324.36 L 404.711,318.666 C 396.046,318.914 392.827,312.23 392.827,312.23 Z" stroke-width="0.99" stroke-linejoin="miter" stroke="none" fill="#000000" marker-start="none" marker-end="none" stroke-miterlimit="79.8403193612775"/>
        <path d="M 405.949,307.03 C 408.385,303.929 410.899,300.346 410.899,300.346 C 415.851,292.672 422.971,292.234 427.487,292.919 L 429.715,287.225 C 410.157,286.235 403.931,297.722 405.949,307.03 Z" stroke-width="0.99" stroke-linejoin="miter" stroke="none" fill="#000000" marker-start="none" marker-end="none" stroke-miterlimit="79.8403193612775"/>
        <path d="M 416.841,317.924 C 416.841,317.924 419.565,315.695 420.307,307.278 C 418.079,308.02 414.117,313.467 416.841,317.924 Z" stroke-width="0.99" stroke-linejoin="miter" stroke="none" fill="#000000" marker-start="none" marker-end="none" stroke-miterlimit="79.8403193612775"/>
        <path d="M 426.496,316.19 C 430.705,319.161 438.132,316.686 440.112,313.714 C 437.142,311.982 430.952,311.486 426.496,316.19 Z" stroke-width="0.99" stroke-linejoin="miter" stroke="none" fill="#ff0000" marker-start="none" marker-end="none" stroke-miterlimit="79.8403193612775"/>
        <path d="M 438.874,290.939 C 442.34,293.414 449.52,292.672 452.49,290.691 C 448.53,287.968 442.588,287.473 438.874,290.939 Z" stroke-width="0.99" stroke-linejoin="miter" stroke="none" fill="#000000" marker-start="none" marker-end="none" stroke-miterlimit="79.8403193612775"/>
        <path d="M 442.836,299.479 C 442.836,299.821 443.445,300.098 444.197,300.098 C 444.948,300.098 445.558,299.821 445.558,299.479 C 445.558,299.138 444.948,298.86 444.197,298.86 C 443.445,298.86 442.836,299.138 442.836,299.479 Z" stroke-width="0.99" stroke-linejoin="miter" stroke="none" fill="#000000" marker-start="none" marker-end="none" stroke-miterlimit="79.8403193612775"/>
        <path d="M 470.068,371.892 L 470.068,366.198 C 462.146,365.208 458.928,361.247 459.174,354.563 L 453.48,352.087 C 452.738,370.655 470.068,371.892 470.068,371.892 Z" stroke-width="0.99" stroke-linejoin="miter" stroke="none" fill="#000000" marker-start="none" marker-end="none" stroke-miterlimit="79.8403193612775"/>
        <path d="M 451.005,360.752 C 449.272,356.295 450.015,342.679 458.184,338.719 L 456.452,333.272 C 456.452,333.272 439.865,341.937 451.005,360.752 Z" stroke-width="0.99" stroke-linejoin="miter" stroke="none" fill="#000000" marker-start="none" marker-end="none" stroke-miterlimit="79.8403193612775"/>
        <path d="M 482.941,350.355 C 479.97,356.295 469.572,358.029 464.126,356.543 C 474.028,365.208 483.683,359.761 487.397,353.573 L 482.941,350.355 Z" stroke-width="0.99" stroke-linejoin="miter" stroke="none" fill="#000000" marker-start="none" marker-end="none" stroke-miterlimit="79.8403193612775"/>
        <path d="M 454.471,348.373 C 459.918,354.067 473.038,357.286 481.951,343.917 L 473.534,345.899 C 473.534,345.899 465.116,353.325 458.184,343.67 C 456.7,345.651 454.471,348.373 454.471,348.373 Z" stroke-width="0.99" stroke-linejoin="miter" stroke="none" fill="#000000" marker-start="none" marker-end="none" stroke-miterlimit="79.8403193612775"/>
        <path d="M 487.892,345.403 L 491.605,349.611 C 493.833,347.879 502.003,339.461 490.121,326.836 L 482.198,326.588 C 488.635,333.52 495.567,339.957 487.892,345.403 Z" stroke-width="0.99" stroke-linejoin="miter" stroke="none" fill="#000000" marker-start="none" marker-end="none" stroke-miterlimit="79.8403193612775"/>
        <path d="M 463.878,338.471 C 470.315,344.661 480.713,342.927 487.397,335.748 L 482.941,332.529 C 479.723,337.481 472.048,337.976 468.334,335.253 C 464.621,332.529 463.631,327.083 465.364,321.389 L 460.412,319.161 C 458.68,322.874 457.442,332.282 463.878,338.471 Z" stroke-width="0.99" stroke-linejoin="miter" stroke="none" fill="#000000" marker-start="none" marker-end="none" stroke-miterlimit="79.8403193612775"/>
        <path d="M 466.354,298.614 L 466.602,303.812 C 480.96,304.308 481.455,320.894 470.315,324.36 L 472.048,329.806 C 472.048,329.806 482.693,326.836 483.189,313.714 C 483.558,303.913 473.781,298.366 466.354,298.614 Z" stroke-width="0.99" stroke-linejoin="miter" stroke="none" fill="#000000" marker-start="none" marker-end="none" stroke-miterlimit="79.8403193612775"/>
        <path d="M 486.407,318.666 L 484.674,324.36 C 490.368,324.112 497.547,323.617 502.252,315.448 L 498.289,312.23 C 498.289,312.23 495.071,318.914 486.407,318.666 Z" stroke-width="0.99" stroke-linejoin="miter" stroke="none" fill="#000000" marker-start="none" marker-end="none" stroke-miterlimit="79.8403193612775"/>
        <path d="M 461.402,287.225 L 463.631,292.919 C 468.146,292.234 475.266,292.672 480.218,300.346 C 480.218,300.346 482.734,303.929 485.169,307.03 C 487.186,297.722 480.96,286.235 461.402,287.225 Z" stroke-width="0.99" stroke-linejoin="miter" stroke="none" fill="#000000" marker-start="none" marker-end="none" stroke-miterlimit="79.8403193612775"/>
        <path d="M 474.276,317.924 C 476.999,313.467 473.038,308.02 470.81,307.278 C 471.553,315.695 474.276,317.924 474.276,317.924 Z" stroke-width="0.99" stroke-linejoin="miter" stroke="none" fill="#000000" marker-start="none" marker-end="none" stroke-miterlimit="79.8403193612775"/>
        <path d="M 451.005,313.714 C 452.986,316.686 460.412,319.161 464.621,316.19 C 460.165,311.486 453.976,311.982 451.005,313.714 Z" stroke-width="0.99" stroke-linejoin="miter" stroke="none" fill="#ff0000" marker-start="none" marker-end="none" stroke-miterlimit="79.8403193612775"/>
        <path d="M 445.558,299.479 C 445.558,299.821 446.167,300.098 446.921,300.098 C 447.672,300.098 448.282,299.821 448.282,299.479 C 448.282,299.138 447.672,298.86 446.921,298.86 C 446.167,298.86 445.558,299.138 445.558,299.479 Z" stroke-width="0.99" stroke-linejoin="miter" stroke="none" fill="#000000" marker-start="none" marker-end="none" stroke-miterlimit="79.8403193612775"/>
        <path d="M 441.102,362.98 L 435.904,366.941 C 446.796,375.358 455.708,366.941 455.708,366.941 C 455.708,366.941 453.234,364.713 450.51,362.98 C 446.054,367.189 441.102,362.98 441.102,362.98 Z" stroke-width="0.99" stroke-linejoin="miter" stroke="none" fill="#000000" marker-start="none" marker-end="none" stroke-miterlimit="79.8403193612775"/>
       </g>
      </g>
     </g>
    </g>
   </g>
  </g>
 </g>
</svg>
