<?xml version="1.0" standalone="no"?>
<!DOCTYPE svg PUBLIC "-//W3C//DTD SVG 1.1//EN" "http://www.w3.org/Graphics/SVG/1.1/DTD/svg11.dtd">
<!--Generator: Xara Designer (www.xara.com), SVG filter version: 6.3.0.9-->
<svg stroke-width="0.501" stroke-linejoin="bevel" fill-rule="evenodd" xmlns:xlink="http://www.w3.org/1999/xlink" xmlns="http://www.w3.org/2000/svg" version="1.1" overflow="visible" width="226.772pt" height="226.772pt" viewBox="0 0 226.772 226.772">
 <defs>
	</defs>
 <g id="Document" fill="none" stroke="black" font-family="Times New Roman" font-size="16" transform="scale(1 -1)">
  <g id="Spread" transform="translate(0 -226.772)">
   <g id="Layer 1" style="font-variant-ligatures:none">
    <path d="M 89.74,45.779 C 89.74,43.248 87.742,41.25 85.211,41.25 C 82.813,41.25 80.815,43.248 80.815,45.779 C 80.815,51.774 84.812,57.102 91.339,60.699 C 97.067,63.896 104.927,65.894 113.32,65.894 C 121.845,65.894 129.705,63.896 135.433,60.699 C 141.828,57.102 145.957,51.774 145.957,45.779 C 145.957,43.248 143.959,41.25 141.428,41.25 C 139.03,41.25 137.032,43.248 137.032,45.779 C 137.032,48.31 134.767,50.974 131.037,52.973 C 126.641,55.504 120.38,56.969 113.32,56.969 C 106.392,56.969 100.131,55.504 95.602,52.973 C 92.005,50.974 89.74,48.31 89.74,45.779 Z M 201.108,21.667 C 201.108,15.939 198.844,10.743 194.98,6.88 C 191.25,3.15 186.055,0.886 180.327,0.886 C 174.598,0.886 169.403,3.15 165.673,6.88 C 163.408,9.012 161.81,11.543 160.744,14.473 C 154.35,11.409 147.556,9.012 140.495,7.28 C 131.836,5.015 122.778,3.949 113.32,3.949 C 82.68,3.949 54.971,16.338 34.856,36.454 C 14.74,56.569 2.352,84.278 2.352,114.917 C 2.352,145.557 14.74,173.266 34.856,193.381 C 54.971,213.497 82.68,225.886 113.32,225.886 C 144.092,225.886 171.801,213.497 191.916,193.381 C 211.899,173.266 224.421,145.557 224.421,114.917 C 224.421,99.997 221.49,85.877 216.161,72.822 C 210.966,60.433 203.639,49.109 194.714,39.385 C 198.177,32.591 201.108,25.797 201.108,21.667 Z M 176.463,57.635 C 176.996,58.701 177.929,59.367 178.861,59.633 L 178.995,59.766 L 178.995,59.766 L 179.128,59.766 L 179.128,59.766 L 179.261,59.766 L 179.394,59.9 L 179.394,59.9 L 179.394,59.9 L 179.527,59.9 L 179.527,59.9 C 179.527,59.9 179.661,59.9 179.661,59.9 L 179.661,59.9 L 179.794,59.9 L 179.794,59.9 C 180.726,60.033 181.659,59.9 182.458,59.367 C 183.257,58.967 183.923,58.301 184.323,57.502 L 184.323,57.502 L 184.323,57.502 L 184.323,57.502 L 184.323,57.502 L 184.323,57.502 L 184.323,57.369 L 184.323,57.369 L 184.323,57.369 L 184.323,57.369 L 184.323,57.369 L 184.456,57.369 C 184.856,56.436 185.788,54.971 186.721,53.239 L 186.721,53.239 L 186.854,53.106 L 186.854,53.106 L 186.987,52.973 L 186.987,52.839 L 186.987,52.839 L 187.121,52.706 L 187.121,52.573 L 187.121,52.573 L 187.121,52.573 L 187.254,52.44 L 187.254,52.44 L 187.254,52.306 L 187.387,52.306 L 187.387,52.173 L 187.387,52.173 L 187.387,52.173 L 187.52,52.04 L 187.52,52.04 L 187.52,51.907 L 187.653,51.774 L 187.653,51.774 L 187.653,51.774 L 187.787,51.64 L 187.787,51.64 L 187.787,51.507 C 188.586,50.308 189.385,48.843 190.185,47.511 C 197.511,55.903 203.639,65.628 207.902,76.152 C 212.831,88.141 215.495,101.196 215.495,114.917 C 215.495,143.159 204.039,168.603 185.655,187.12 C 167.138,205.637 141.561,216.96 113.32,216.96 C 85.211,216.96 59.634,205.637 41.117,187.12 C 22.6,168.603 11.277,143.159 11.277,114.917 C 11.277,86.676 22.6,61.232 41.117,42.715 C 59.634,24.198 85.211,12.742 113.32,12.742 C 121.979,12.742 130.371,13.807 138.364,15.806 C 145.957,17.804 153.018,20.468 159.678,23.798 L 159.678,23.932 L 159.812,23.932 L 159.812,24.331 L 159.812,24.331 L 159.945,24.731 L 159.945,24.731 L 160.078,25.131 L 160.078,25.264 L 160.211,25.53 L 160.211,25.663 L 160.211,26.063 L 160.344,26.196 L 160.344,26.463 L 160.478,26.596 L 160.611,26.996 C 160.744,27.528 160.877,28.061 161.01,28.461 L 161.144,28.594 L 161.277,28.994 L 161.277,29.127 L 161.41,29.527 L 161.41,29.527 C 161.543,29.926 161.677,30.193 161.81,30.459 L 161.81,30.592 L 161.943,30.992 L 162.076,31.125 L 162.209,31.525 L 162.343,31.525 C 162.476,31.925 162.609,32.324 162.742,32.591 L 162.742,32.591 L 163.009,33.124 L 163.009,33.257 L 163.142,33.656 L 163.275,33.79 L 163.408,34.189 L 163.408,34.322 L 163.542,34.322 L 163.675,34.722 L 163.675,34.855 L 163.808,35.122 L 163.941,35.388 L 164.074,35.388 C 164.341,35.921 164.474,36.454 164.874,36.987 L 164.874,37.12 L 165.14,37.52 L 165.14,37.653 L 165.407,38.186 L 165.407,38.186 L 165.673,38.719 L 165.673,38.719 L 165.939,39.251 L 166.206,39.651 L 166.206,39.784 L 166.206,39.784 L 166.739,40.85 L 166.872,40.85 L 167.005,41.25 L 167.138,41.516 L 167.272,41.649 L 167.405,42.049 L 167.538,42.182 L 167.804,42.582 L 167.804,42.715 L 168.071,43.115 L 168.071,43.115 L 168.337,43.647 L 168.337,43.647 L 168.604,44.18 L 168.604,44.18 L 168.87,44.58 L 169.003,44.713 L 169.137,45.113 L 169.27,45.246 L 169.403,45.646 L 169.536,45.779 L 169.669,46.045 L 169.803,46.312 L 169.936,46.578 L 170.069,46.845 L 170.469,47.378 L 170.469,47.511 L 170.735,47.91 L 170.735,47.91 L 171.002,48.31 L 171.002,48.443 L 171.268,48.843 L 171.268,48.843 L 171.534,49.376 L 171.534,49.376 L 171.934,49.775 L 172.067,50.175 L 172.067,50.308 L 172.334,50.575 L 172.467,50.708 L 172.6,50.974 L 172.733,51.241 L 172.867,51.374 L 173,51.64 L 173,51.907 L 173.266,52.173 L 173.266,52.173 L 173.533,52.573 L 173.533,52.573 L 173.799,52.973 L 173.799,52.973 L 173.932,53.372 L 173.932,53.372 L 174.066,53.505 L 174.066,53.639 L 174.199,53.639 L 174.199,53.772 L 174.199,53.905 L 174.199,53.905 L 174.332,54.038 L 174.332,54.038 L 174.465,54.171 L 174.465,54.171 L 174.465,54.305 L 174.465,54.305 L 174.598,54.305 L 174.598,54.305 L 174.598,54.438 L 174.598,54.438 L 174.598,54.438 L 174.598,54.438 L 174.732,54.571 L 174.732,54.571 L 174.732,54.704 L 174.732,54.704 L 174.732,54.838 L 174.865,54.838 L 174.865,54.838 L 174.865,54.838 L 174.865,54.838 L 174.865,54.971 L 174.865,54.971 L 174.998,55.104 L 174.998,55.104 L 174.998,55.104 L 174.998,55.104 L 174.998,55.237 L 174.998,55.237 L 175.131,55.237 L 175.131,55.237 L 175.131,55.37 L 175.131,55.37 L 175.264,55.504 L 175.264,55.504 L 175.264,55.504 L 175.264,55.504 L 175.264,55.637 L 175.264,55.637 L 175.264,55.637 L 175.264,55.637 L 175.398,55.77 L 175.398,55.77 L 175.398,55.77 L 175.398,55.77 L 175.398,55.903 L 175.398,55.903 L 175.531,55.903 L 175.531,55.903 L 175.531,56.036 L 175.531,56.036 L 175.531,56.17 L 175.531,56.17 L 175.664,56.17 L 175.664,56.17 L 175.664,56.17 L 175.664,56.17 L 175.664,56.303 L 175.664,56.303 L 175.664,56.303 L 175.664,56.303 L 175.797,56.436 L 175.797,56.436 L 175.797,56.436 L 175.797,56.436 L 175.797,56.569 L 175.797,56.569 L 175.797,56.569 L 175.797,56.569 L 175.931,56.703 L 175.931,56.703 L 175.931,56.703 L 175.931,56.703 L 175.931,56.703 L 175.931,56.703 L 176.064,56.836 L 176.064,56.836 L 176.064,56.836 L 176.064,56.836 L 176.064,56.969 L 176.064,56.969 L 176.064,56.969 L 176.064,56.969 L 176.064,56.969 L 176.064,56.969 L 176.197,57.102 L 176.197,57.102 L 176.197,57.102 L 176.197,57.102 L 176.197,57.102 L 176.197,57.102 L 176.197,57.235 L 176.197,57.235 L 176.197,57.235 L 176.197,57.235 L 176.33,57.369 L 176.33,57.369 L 176.33,57.369 L 176.33,57.369 L 176.33,57.369 L 176.33,57.369 L 176.33,57.502 L 176.33,57.502 L 176.463,57.502 L 176.463,57.502 L 176.463,57.502 L 176.463,57.502 L 176.463,57.635 L 176.463,57.635 L 176.463,57.635 L 176.463,57.635 Z M 188.852,13.274 C 190.851,15.273 192.316,18.337 192.316,21.667 C 192.316,24.731 188.986,31.392 185.389,37.919 L 185.389,37.919 L 185.389,37.919 L 185.389,37.919 C 184.856,38.852 184.456,39.651 183.923,40.584 L 183.79,40.717 L 183.79,40.85 L 183.657,40.85 L 183.657,40.983 L 183.524,41.383 L 183.391,41.383 C 182.458,43.115 181.526,44.58 180.726,46.045 L 180.593,46.179 L 180.593,46.312 L 180.593,46.312 L 180.46,46.445 L 180.327,46.578 L 180.327,46.711 L 180.06,46.312 L 179.927,45.912 L 179.927,45.912 L 179.661,45.513 L 179.661,45.513 L 179.394,45.113 L 179.128,44.713 L 179.128,44.713 L 178.861,44.314 L 178.861,44.314 L 178.728,43.914 L 178.462,43.514 L 178.462,43.514 L 178.195,43.115 L 177.929,42.715 L 177.929,42.715 L 177.662,42.182 L 177.662,42.182 L 177.396,41.782 L 177.396,41.782 L 177.129,41.383 L 176.863,40.85 L 176.863,40.85 L 176.597,40.45 L 176.597,40.45 L 176.463,40.051 L 176.463,40.051 L 176.197,39.518 L 176.197,39.518 L 175.931,39.118 L 175.664,38.719 L 175.664,38.719 L 175.398,38.186 L 175.398,38.186 L 175.131,37.786 L 175.131,37.786 L 174.998,37.386 L 174.732,36.854 L 174.465,36.454 L 174.465,36.454 L 174.199,35.921 L 174.199,35.921 L 173.932,35.521 L 173.666,35.122 L 173.666,35.122 L 173.533,34.589 L 173.266,34.189 L 173.266,34.189 L 173,33.656 L 173,33.656 L 172.733,33.257 L 172.733,33.257 L 172.6,32.857 L 172.334,32.457 L 172.067,31.925 L 171.934,31.525 L 171.934,31.525 L 171.668,31.125 L 171.534,30.726 L 171.534,30.726 L 171.268,30.326 L 171.268,30.326 L 171.135,29.793 L 171.135,29.793 L 170.868,29.393 L 170.868,29.393 L 170.735,28.994 L 170.735,28.994 L 170.602,28.594 L 170.336,28.195 L 170.202,27.928 L 170.202,27.928 L 170.069,27.395 L 170.069,27.395 L 169.803,26.996 L 169.803,26.729 L 169.803,26.729 L 169.669,26.33 L 169.669,26.33 L 169.403,26.063 L 169.403,26.063 L 169.27,25.663 L 169.27,25.663 L 169.27,25.264 L 169.27,25.264 L 169.137,24.997 L 169.137,24.997 L 169.003,24.598 L 169.003,24.598 L 168.87,24.331 L 168.87,24.331 L 168.87,23.932 L 168.87,23.932 L 168.737,23.665 L 168.737,23.665 L 168.604,23.399 L 168.604,23.399 L 168.604,23.132 L 168.604,23.132 L 168.604,22.866 L 168.604,22.866 C 168.471,22.733 168.471,22.733 168.471,22.6 L 168.471,22.6 L 168.471,22.333 L 168.471,22.333 C 168.471,22.2 168.471,22.2 168.471,22.067 L 168.471,22.067 L 168.337,21.8 L 168.337,21.8 L 168.337,21.667 L 168.337,21.534 C 168.471,18.203 169.803,15.273 171.934,13.141 C 174.066,11.01 176.996,9.678 180.327,9.678 C 183.657,9.678 186.588,11.01 188.852,13.274 Z M 182.591,129.038 C 183.79,126.907 182.991,124.243 180.726,123.044 C 178.595,121.978 175.931,122.777 174.732,124.909 C 173.799,126.907 172.334,128.772 170.602,130.104 C 168.87,131.569 166.739,132.502 164.607,133.168 L 164.607,133.168 C 163.275,133.434 161.943,133.701 160.744,133.701 C 159.279,133.701 157.947,133.568 156.614,133.301 C 154.217,132.768 151.952,134.234 151.286,136.632 C 150.886,139.029 152.352,141.294 154.749,141.96 C 156.614,142.36 158.746,142.493 160.744,142.493 C 162.875,142.493 164.874,142.227 166.739,141.694 L 167.005,141.694 C 170.336,140.761 173.399,139.163 176.064,137.031 C 178.861,134.9 180.993,132.102 182.591,129.038 Z M 51.907,124.909 C 50.842,122.777 48.177,121.978 45.913,123.044 C 43.781,124.243 42.982,126.907 44.048,129.038 C 45.646,132.102 47.911,134.9 50.575,137.031 C 53.24,139.163 56.437,140.761 59.767,141.694 L 59.9,141.694 C 61.899,142.227 63.897,142.493 65.895,142.493 C 68.026,142.493 70.025,142.36 72.023,141.96 C 74.421,141.294 75.886,139.029 75.353,136.632 C 74.82,134.234 72.423,132.768 70.158,133.301 C 68.826,133.568 67.36,133.701 66.028,133.701 C 64.696,133.701 63.364,133.434 62.165,133.168 L 62.165,133.168 C 59.9,132.502 57.902,131.569 56.17,130.104 C 54.439,128.772 52.973,126.907 51.907,124.909 Z M 169.137,102.395 C 169.137,105.06 168.204,107.457 166.606,109.189 C 165.14,110.655 163.009,111.72 160.877,111.72 C 158.613,111.72 156.614,110.655 155.149,109.189 C 153.55,107.457 152.618,105.06 152.618,102.395 C 152.618,99.864 153.55,97.466 155.149,95.735 C 156.614,94.136 158.613,93.203 160.877,93.203 C 163.009,93.203 165.14,94.136 166.606,95.735 C 168.204,97.466 169.137,99.864 169.137,102.395 Z M 173.133,115.051 C 176.064,111.854 177.929,107.324 177.929,102.395 C 177.929,97.466 176.064,93.07 173.133,89.74 C 169.936,86.409 165.673,84.278 160.877,84.278 C 156.082,84.278 151.685,86.409 148.621,89.74 C 145.558,93.07 143.693,97.466 143.693,102.395 C 143.693,107.324 145.558,111.854 148.621,115.051 C 151.685,118.514 156.082,120.513 160.877,120.513 C 165.673,120.513 169.936,118.514 173.133,115.051 Z M 74.154,102.395 C 74.154,105.06 73.222,107.457 71.623,109.189 C 70.158,110.655 68.16,111.72 65.895,111.72 C 63.63,111.72 61.632,110.655 60.167,109.189 C 58.568,107.457 57.636,105.06 57.636,102.395 C 57.636,99.864 58.568,97.466 60.167,95.735 C 61.632,94.136 63.63,93.203 65.895,93.203 C 68.16,93.203 70.158,94.136 71.623,95.735 C 73.222,97.466 74.154,99.864 74.154,102.395 Z M 78.151,115.051 C 81.215,111.854 82.947,107.324 82.947,102.395 C 82.947,97.466 81.215,93.07 78.151,89.74 C 74.954,86.409 70.691,84.278 65.895,84.278 C 61.099,84.278 56.836,86.409 53.639,89.74 C 50.575,93.07 48.71,97.466 48.71,102.395 C 48.71,107.324 50.575,111.854 53.639,115.051 C 56.836,118.514 61.099,120.513 65.895,120.513 C 70.691,120.513 74.954,118.514 78.151,115.051 Z" fill="#ffffff" stroke="none" stroke-width="1.332" fill-rule="evenodd" stroke-linejoin="miter" marker-start="none" marker-end="none" stroke-miterlimit="79.8403193612775" fill-opacity="0.200000"/>
   </g>
  </g>
 </g>
</svg>
